<?xml version="1.0" encoding="UTF-8"?>
<svg id="_レイヤー_1" data-name="レイヤー 1" xmlns="http://www.w3.org/2000/svg" viewBox="0 0 150.44 150.44">
  <defs>
    <style>
      .cls-1 {
        fill: none;
        stroke: #1b3a57;
        stroke-miterlimit: 10;
        stroke-width: 2px;
      }
    </style>
  </defs>
  <path class="cls-1" d="M75.22,1c40.93,0,74.22,33.29,74.22,74.22s-33.29,74.22-74.22,74.22S1,116.15,1,75.22,34.3,1,75.22,1"/>
  <g>
    <path class="cls-1" d="M75.22,28.94c-17.58,0-31.81,14.24-31.81,31.81.01,2.58.55,5.18,1.37,7.92,1.44,4.78,3.81,10,6.56,15.29,8.24,15.79,19.95,32.07,20.01,32.16l3.87,5.39,3.87-5.39c.05-.06,6.86-9.55,13.74-21.02,3.44-5.74,6.9-11.98,9.55-17.87,1.33-2.95,2.45-5.82,3.28-8.55.82-2.74,1.35-5.33,1.36-7.92,0-17.57-14.23-31.81-31.81-31.81Z"/>
    <path class="cls-1" d="M75.22,50.4c-5.71,0-10.34,4.64-10.34,10.35s4.63,10.34,10.34,10.34,10.34-4.63,10.34-10.34c0-5.71-4.64-10.35-10.34-10.35Z"/>
  </g>
</svg>