<svg viewBox="0 0 150.44 150.44" xmlns="http://www.w3.org/2000/svg"><g fill="#1b3a57"><path d="m61.21 101.88s0 0 0 0z"/><path d="m122.93 82.94c0-7.01-4.22-13.02-10.26-15.65l-4.18-15.12c-2.53-9.18-10.89-15.54-20.41-15.54h-25.74c-9.52 0-17.87 6.35-20.41 15.54l-4.17 15.12c-6.04 2.63-10.26 8.64-10.26 15.65 0 7.47 4.8 13.81 11.49 16.13h-.26v7.81c0 2.54 2.06 4.6 4.6 4.6h8.58c2.54 0 4.6-2.06 4.6-4.6v-6.86h3.41c.31.69.74 1.32 1.27 1.86 1.06 1.06 2.52 1.73 4.12 1.83l.1.04h19.45c1.69-.06 3.24-.75 4.35-1.86.54-.53.96-1.17 1.27-1.86h3.41v6.86c0 2.54 2.06 4.6 4.6 4.6h8.58c2.54 0 4.6-2.06 4.6-4.6v-7.81h-.26c6.68-2.32 11.49-8.66 11.49-16.13zm-69.39 23.93c0 .89-.73 1.61-1.62 1.61h-8.58c-.9 0-1.62-.72-1.62-1.61v-7.12c.93.16 1.89.26 2.87.26h8.95zm55.17 0c0 .89-.72 1.61-1.61 1.61h-8.58c-.89 0-1.62-.73-1.62-1.61v-6.86h8.95c.98 0 1.93-.1 2.87-.26v7.12zm-2.86-9.83h-17.55l-.28 1.14c-.15.62-.47 1.18-.89 1.6-.61.61-1.47.99-2.39.99h-19.02c-.93 0-1.79-.38-2.39-.99-.42-.42-.74-.98-.89-1.6l-.28-1.14h-17.55c-3.9 0-7.41-1.58-9.97-4.13-2.55-2.55-4.13-6.07-4.13-9.97 0-6.01 3.76-11.14 9.06-13.17l.7-.27 4.57-16.54c2.17-7.89 9.35-13.35 17.53-13.35h25.74c8.18 0 15.36 5.46 17.54 13.35l4.56 16.54.7.27c5.29 2.04 9.06 7.16 9.06 13.17 0 3.9-1.58 7.41-4.13 9.97-2.56 2.55-6.07 4.13-9.97 4.13z"/><path d="m99.85 62.48c.35-.46.53-1.02.53-1.58 0-.23-.03-.47-.09-.69l-1.75-6.34c-1.53-5.51-6.56-9.35-12.28-9.35h-22.07c-5.71 0-10.76 3.84-12.28 9.35l-1.75 6.34c-.06.23-.09.47-.09.7 0 .56.18 1.12.53 1.58.5.65 1.26 1.03 2.07 1.03h45.11c.81 0 1.58-.38 2.07-1.03zm-1.78-1.35-.29.14h-45.11l-.29-.15-.08-.22v-.09s.01 0 .01 0l1.75-6.34c1.25-4.53 5.43-7.71 10.13-7.71h22.07c4.71 0 8.88 3.18 10.13 7.71l1.75 6.34v.1s-.06.23-.06.23z"/><path d="m84.52 88.06h-.02c-.26-.28-.71-.48-1.14-.47h-16.3c-.43-.01-.88.2-1.14.46h-.02s-.02.04-.02.04c-.25.24-.47.71-.45 1.12v7.53c-.01.43.2.89.47 1.15h.01s0 .01 0 .01c.24.26.7.48 1.14.47h16.3c.43.01.89-.21 1.14-.47h.01c.29-.27.48-.74.48-1.14v-7.57c0-.4-.21-.87-.46-1.12l-.02-.02zm-1.76 8.07h-15.09v-6.31h15.09z"/><path d="m44.59 75.1c-4.32 0-7.83 3.51-7.83 7.83s3.51 7.82 7.83 7.83c4.32 0 7.83-3.51 7.83-7.83s-3.51-7.83-7.83-7.83zm3.95 11.79c-1.02 1.01-2.41 1.64-3.95 1.64s-2.94-.63-3.95-1.64c-1.01-1.02-1.64-2.41-1.64-3.95 0-1.55.63-2.94 1.64-3.96 1.01-1.01 2.41-1.64 3.95-1.64s2.94.63 3.95 1.64c1.01 1.02 1.64 2.41 1.64 3.96s-.62 2.94-1.64 3.95z"/><path d="m105.85 75.1c-4.32 0-7.83 3.51-7.83 7.83s3.5 7.82 7.83 7.83c4.32 0 7.83-3.51 7.83-7.83 0-4.33-3.51-7.83-7.83-7.83zm3.95 11.79c-1.01 1.01-2.41 1.64-3.95 1.64s-2.94-.63-3.95-1.64c-1.01-1.02-1.64-2.41-1.64-3.95s.62-2.94 1.64-3.96c1.02-1.01 2.41-1.64 3.95-1.64s2.94.63 3.95 1.64 1.64 2.41 1.64 3.96c0 1.54-.63 2.94-1.64 3.95z"/></g><path d="m75.22 1c40.93 0 74.22 33.29 74.22 74.22s-33.29 74.22-74.22 74.22-74.22-33.29-74.22-74.22 33.3-74.22 74.22-74.22" fill="none" stroke="#1b3a57" stroke-miterlimit="10" stroke-width="2"/></svg>