<?xml version="1.0" encoding="UTF-8"?>
<svg id="_レイヤー_1" data-name="レイヤー 1" xmlns="http://www.w3.org/2000/svg" viewBox="0 0 750 562">
  <defs>
    <style>
      .cls-1 {
        fill: #1b3a57;
      }
    </style>
  </defs>
  <g>
    <path class="cls-1" d="M397.44,242.58c26.4-36.24,23.23-87.38-9.52-120.04-36.28-36.16-95.31-36.16-131.58,0-36.28,36.17-36.28,95,0,131.17,32.76,32.65,84.06,35.81,120.41,9.5l7.19,7.16,20.69-20.63-7.19-7.16ZM369.87,235.73c-26.37,26.28-69.13,26.29-95.5,0-26.37-26.29-26.37-68.92,0-95.21,26.37-26.29,69.13-26.29,95.5,0,26.37,26.29,26.37,68.92,0,95.21Z"/>
    <path class="cls-1" d="M284.31,155.52c-13.69,17.54-14.83,41.66-3.42,60.3,1.08,1.76,3.39,2.32,5.16,1.24,1.76-1.08,2.32-3.38,1.25-5.14h0c-9.8-15.98-8.82-36.78,2.92-51.8,1.28-1.63.98-3.98-.65-5.25-1.63-1.27-3.99-.98-5.26.65Z"/>
    <path class="cls-1" d="M482.65,316.52l-69.87-62.21-24.26,24.19,62.41,69.65c6.35,8.18,17.77,6.98,28.04-3.25,10.26-10.23,11.9-22.05,3.69-28.37Z"/>
  </g>
  <g>
    <path class="cls-1" d="M95.03,448.95h559.91c24.1,0,43.69-19.51,43.69-43.53V43.56c0-24.02-19.59-43.56-43.69-43.56H95.03c-24.08,0-43.67,19.53-43.67,43.56v361.86c0,24.02,19.59,43.53,43.67,43.53ZM124.19,69.18h501.62v310.59H124.19V69.18Z"/>
    <path class="cls-1" d="M0,493.64v31.62c0,20.26,16.52,36.73,36.83,36.73h676.32c20.32,0,36.85-16.47,36.85-36.73v-31.62H0Z"/>
  </g>
</svg>