<?xml version="1.0" encoding="UTF-8"?>
<svg id="_レイヤー_1" data-name="レイヤー 1" xmlns="http://www.w3.org/2000/svg" viewBox="0 0 742 565">
  <defs>
    <style>
      .cls-1 {
        fill: #1b3a57;
      }

      .cls-2 {
        fill: #fff;
      }
    </style>
  </defs>
  <g>
    <path class="cls-1" d="M49.73,206.48c3.33-7.28,9.71-19.25,20.9-40.27,5.14-9.68,10.89-20.36,16.78-31.31h-51.58c-19.77,0-35.82,16-35.82,35.79s16.05,35.79,35.82,35.79h13.9Z"/>
    <path class="cls-1" d="M706.18,134.9h-51.58c5.91,10.95,11.64,21.63,16.78,31.31,11.19,21.02,17.55,32.98,20.9,40.27h13.9c19.77,0,35.82-16.02,35.82-35.79s-16.05-35.79-35.82-35.79Z"/>
    <path class="cls-1" d="M57.09,516.74c0,26.65,21.65,48.26,48.3,48.26s48.28-21.61,48.28-48.26v-45.63H57.09v45.63Z"/>
    <path class="cls-1" d="M588.29,516.74c0,26.65,21.65,48.26,48.32,48.26s48.3-21.61,48.3-48.26v-45.63h-96.62v45.63Z"/>
    <path class="cls-1" d="M678.05,215.44c2.45.72-89.4-167.69-93.79-176.78-11.59-24.12-40.26-38.66-68.2-38.66H225.92c-27.97,0-56.56,14.55-68.2,38.66-4.39,9.09-96.19,177.5-93.77,176.78,0,0-29.71,29.61-31.97,31.99-12.5,13.42-11.59,25.02-11.59,36.65v134.02c0,25,4.46,38.69,33.97,38.69h633.31c29.5,0,33.99-13.69,33.99-38.69v-134.02c0-11.63.88-23.23-11.66-36.65-2.17-2.38-31.93-31.99-31.93-31.99ZM139.94,163.79s58.99-106.15,62.47-113.09c5.95-11.86,22.94-20.45,40.31-20.45h256.56c17.39,0,34.35,8.6,40.31,20.45,3.51,6.95,62.5,113.09,62.5,113.09,5.43,9.77.63,27.96-15.47,27.96H155.38c-16.1,0-20.88-18.19-15.44-27.96ZM132.06,399.87c-29.94,0-54.21-24.23-54.21-54.14s24.27-54.16,54.21-54.16,54.19,24.23,54.19,54.16c0,29.91-24.25,54.14-54.19,54.14ZM453.29,414.51c0,3.96-3.22,7.17-7.16,7.17h-150.24c-3.96,0-7.18-3.21-7.18-7.17v-66.13c0-3.91,3.22-7.1,7.18-7.1h150.24c3.94,0,7.16,3.19,7.16,7.1v66.13h0ZM609.94,399.87c-29.94,0-54.23-24.23-54.23-54.14s24.3-54.16,54.23-54.16,54.21,24.25,54.21,54.16-24.27,54.14-54.21,54.14Z"/>
  </g>
  <g>
    <path class="cls-2" d="M466.94,191.7c-3.77-2.39-21.57,18.85-39.76,47.44-18.2,28.59-29.9,53.71-26.13,56.1,3.77,2.39,21.57-18.85,39.76-47.44,18.2-28.59,29.9-53.71,26.13-56.1Z"/>
    <path class="cls-2" d="M563.9,236.9c-3.77-2.39-21.57,18.85-39.76,47.44-18.2,28.59-29.9,53.71-26.13,56.1,3.77,2.39,21.57-18.85,39.76-47.44,18.2-28.59,29.9-53.71,26.13-56.1Z"/>
    <path class="cls-2" d="M523.09,203.78c-3.77-2.39-25.14,24.45-47.73,59.95-22.6,35.5-37.86,66.22-34.09,68.62,3.77,2.39,25.13-24.45,47.73-59.95,22.6-35.5,37.86-66.22,34.1-68.61Z"/>
  </g>
</svg>