<?xml version="1.0" encoding="UTF-8"?>
<svg id="_レイヤー_1" data-name="レイヤー 1" xmlns="http://www.w3.org/2000/svg" viewBox="0 0 547 565">
  <defs>
    <style>
      .cls-1 {
        fill: #1b3a57;
      }
    </style>
  </defs>
  <path class="cls-1" d="M106.22,154.29l92.22,92.45c15.83-15.19,29.56-28.36,39.85-38.26l-93.03-93.25-11.38-50.45L50.87,14.33l-22.78,22.8L5.31,59.9l50.46,83.01,50.46,11.38Z"/>
  <path class="cls-1" d="M386.47,304.9l136.37,135.92c25.14,25.12,25.14,65.87,0,91.01-25.14,25.12-65.87,25.12-91.01,0l-136.36-135.92,91.01-91.01Z"/>
  <path class="cls-1" d="M498.59,224.46c46.96-42.61,54.8-91.02,44.3-131.85-.31-3.24-1.09-5.97-3.91-8l-9.45-7.74c-1.64-1.53-3.84-2.28-6.05-2.07-2.22.22-4.24,1.36-5.55,3.17l-54.35,70.66c-1.52,2.09-3.97,3.28-6.54,3.19l-19.73,1.45c-1.69-.05-3.33-.66-4.66-1.72l-38.11-32.3c-1.55-1.26-2.57-3.05-2.83-5.04l-2.36-17.86c-.28-1.97.22-3.97,1.4-5.59l50.89-69.13c2.31-3.17,1.86-7.57-1-10.24l-12.35-9.66c-2.41-2.24-5.16-1.93-8.9-1.21-35.14,6.93-95.15,40.97-110.38,88.01-13.42,41.4-8.74,70.59-8.74,70.59,0,23.33-7.67,45.81-17.11,55.25L18.02,468.91c-.52.47-1.02.95-1.52,1.45-21.9,21.9-21.87,57.43-.71,78.59,21.16,21.16,57.23,21.71,79.13-.19,1.02-1.02,2-2.07,2.91-3.15l255.68-276.36c31.45-28,93.72,1.83,145.07-44.78Z"/>
</svg>