<?xml version="1.0" encoding="UTF-8"?>
<svg id="_レイヤー_1" data-name="レイヤー 1" xmlns="http://www.w3.org/2000/svg" viewBox="0 0 1129 563">
  <defs>
    <style>
      .cls-1 {
        fill: #1b3a57;
      }
    </style>
  </defs>
  <g>
    <path class="cls-1" d="M439.97,205.75c3.31-7.26,9.67-19.18,20.8-40.13,5.12-9.65,10.84-20.29,16.7-31.2h-51.34c-19.68,0-35.66,15.94-35.66,35.66s15.98,35.66,35.66,35.66h13.84Z"/>
    <path class="cls-1" d="M1093.34,134.43h-51.34c5.88,10.91,11.58,21.55,16.7,31.2,11.13,20.94,17.47,32.87,20.8,40.13h13.84c19.68,0,35.66-15.96,35.66-35.66s-15.98-35.66-35.66-35.66Z"/>
    <path class="cls-1" d="M447.29,514.91c0,26.56,21.55,48.09,48.07,48.09s48.05-21.53,48.05-48.09v-45.47h-96.13v45.47Z"/>
    <path class="cls-1" d="M976.01,514.91c0,26.56,21.55,48.09,48.1,48.09s48.07-21.53,48.07-48.09v-45.47h-96.17v45.47Z"/>
    <path class="cls-1" d="M1065.35,214.68c2.43.72-88.98-167.09-93.35-176.16-11.54-24.03-40.07-38.53-67.89-38.53h-288.78c-27.83,0-56.3,14.5-67.89,38.53-4.37,9.06-95.74,176.88-93.33,176.16,0,0-29.57,29.51-31.82,31.88-12.44,13.37-11.54,24.93-11.54,36.52v133.55c0,24.91,4.44,38.55,33.81,38.55h630.35c29.37,0,33.83-13.64,33.83-38.55v-133.55c0-11.59.88-23.15-11.61-36.52-2.16-2.37-31.78-31.88-31.78-31.88ZM529.76,163.21s58.71-105.77,62.18-112.69c5.93-11.81,22.83-20.38,40.12-20.38h255.36c17.31,0,34.19,8.57,40.12,20.38,3.49,6.92,62.21,112.69,62.21,112.69,5.41,9.74.63,27.86-15.39,27.86h-429.22c-16.03,0-20.78-18.13-15.37-27.86ZM521.91,398.46c-29.8,0-53.96-24.14-53.96-53.95s24.16-53.97,53.96-53.97,53.93,24.14,53.93,53.97c0,29.8-24.14,53.95-53.93,53.95ZM841.64,413.04c0,3.94-3.2,7.15-7.12,7.15h-149.54c-3.94,0-7.14-3.2-7.14-7.15v-65.89c0-3.9,3.2-7.08,7.14-7.08h149.54c3.92,0,7.12,3.18,7.12,7.08v65.89h0ZM997.56,398.46c-29.8,0-53.98-24.14-53.98-53.95s24.18-53.97,53.98-53.97,53.96,24.17,53.96,53.97-24.16,53.95-53.96,53.95Z"/>
  </g>
  <g>
    <path class="cls-1" d="M387.06,265.61c-7.54-18.76-26.69-31.37-47.64-31.37h-60.4c-1.92,0-3.62-.02-5.15-.07.49-.64.92-1.22,1.28-1.68,2.07-2.72,3.75-4.89,5.08-7.01.52-.7,1.29-1.56,2.18-2.63,7.26-8.57,22.37-26.41,26.33-51.19,2.2-13.74-1.8-27.8-10.95-38.53-8.51-9.99-20.52-15.94-32.11-15.94s-21.87,5.83-27.85,16c-.88,1.48-1.93,3.36-3.15,5.54-5.95,10.57-18.3,32.59-30.26,41.24-13.7,9.9-25.83,23.27-37.56,36.2-16.12,17.78-32.81,36.16-46.26,36.16-10.52,0-19.04,8.55-19.04,19.06v130.07c0,10.52,8.52,19.06,19.04,19.06,14,0,45.58,12.16,68.63,21.05,17.66,6.81,32.92,12.67,43.24,14.74,3.04.61,6.17,1.31,9.39,2.01,11.81,2.62,25.22,5.59,38.54,5.59,21.18,0,37.55-7.65,48.65-22.75,10.83-14.7,23.2-52.87,39.51-105.22,1.11-3.59,2.22-7.12,3.28-10.52,24.74-26.33,19.01-50.39,15.22-59.8ZM355.06,315.3c-12.99,41.32-30.29,99.56-41.35,114.57-8.41,11.44-20.34,14.98-33.31,14.98-14.6,0-30.51-4.48-44.19-7.23-22.8-4.56-87.19-36.16-115.61-36.16v-130.07c34.5,0,61.87-52.06,94.97-75.97,17.84-12.91,32.78-42.56,38.66-52.56,2.71-4.6,6.88-6.62,11.44-6.62,12.19,0,27.13,14.37,24.25,32.41-3.97,24.78-22.8,41.65-25.77,46.59-2.97,4.97-15.86,18.84-15.86,26.77,0,6.95,4.94,11.3,30.73,11.3h60.4c25.82,0,48.58,30.36,15.63,62Z"/>
    <path class="cls-1" d="M0,286.52v120.69c0,14.91,12.08,27.01,27,27.01h32.21c9.95,0,18.01-8.07,18.01-18.01v-156.7H27c-14.92,0-27,12.09-27,27.01ZM37.98,380.65c6.84,0,12.39,5.54,12.39,12.4s-5.55,12.4-12.39,12.4-12.41-5.55-12.41-12.4c0-6.85,5.55-12.4,12.41-12.4Z"/>
  </g>
</svg>