<?xml version="1.0" encoding="UTF-8"?>
<svg id="_レイヤー_1" data-name="レイヤー 1" xmlns="http://www.w3.org/2000/svg" viewBox="0 0 516 565">
  <defs>
    <style>
      .cls-1 {
        fill: #1b3a57;
      }
    </style>
  </defs>
  <path class="cls-1" d="M82.13,163.69l-24.21-9.12c-22.13-8.33-46.82,2.85-55.16,24.97-8.33,22.12,2.85,46.81,24.98,55.14l54.39,20.49v-91.47Z"/>
  <path class="cls-1" d="M405.29,181.31c-.25.88-.49,1.69-.72,2.55v296.89c0,8.22-3.38,15.78-8.77,21.15-5.38,5.4-12.94,8.77-21.17,8.77h-219.3c1.07-1.74,2.04-3.57,2.79-5.56,1.43-3.81,2.1-7.68,2.1-11.49,0-6.56-2.02-12.97-5.66-18.35-3.65-5.37-8.89-9.67-15.45-12.15l-33.75-12.71h0c-3.8-1.43-7.66-2.11-11.47-2.11-6.57,0-12.99,2.02-18.35,5.67-5.38,3.65-9.69,8.89-12.16,15.45-1.42,3.79-2.1,7.66-2.1,11.47,0,6.58,2.03,12.99,5.67,18.36,3.65,5.36,8.89,9.68,15.45,12.15l33.75,12.71c3.81,1.44,7.68,2.11,11.48,2.11,6.57,0,12.99-2.03,18.35-5.66.93-.63,1.78-1.37,2.64-2.1,26.99,22.67,69.26,44.96,132.11,46.46,131.32,3.11,166.24-94.16,185.22-200.81,0,0,45.31-204.3,48.38-215.08,15.38-53.99-79.83-70.27-109.04,32.28Z"/>
  <path class="cls-1" d="M133.26,273.96V48.59h220.17v360.5h-188.63c-.43,3.82-1.3,7.65-2.72,11.4-3.57,9.5-9.91,17.23-17.73,22.54-2.06,1.39-4.21,2.62-6.43,3.66l6.46,2.43c9.5,3.57,17.25,9.91,22.56,17.73,4.32,6.34,7.03,13.68,7.91,21.36h199.79c2.1,0,3.9-.82,5.29-2.19,1.37-1.39,2.19-3.2,2.19-5.29V7.49c0-2.11-.82-3.9-2.19-5.29-1.39-1.38-3.19-2.19-5.29-2.2H112.07c-2.1,0-3.9.82-5.29,2.2-1.37,1.39-2.18,3.18-2.19,5.29v254.49l19.6,7.36c3.24,1.24,6.27,2.8,9.08,4.62ZM243.35,464.3c-7.24,0-13.1-5.88-13.1-13.11s5.86-13.09,13.1-13.09,13.1,5.86,13.1,13.09-5.87,13.11-13.1,13.11Z"/>
  <path class="cls-1" d="M106.1,434.22c3.8,1.43,7.68,2.1,11.48,2.1,6.57,0,12.99-2.01,18.35-5.66,5.38-3.65,9.68-8.9,12.15-15.45,1.43-3.8,2.1-7.67,2.1-11.48,0-6.57-2.02-12.98-5.66-18.35-3.65-5.36-8.89-9.68-15.44-12.15l-33.76-12.72c-3.8-1.43-7.67-2.1-11.48-2.1-6.57,0-12.99,2.02-18.35,5.66-5.37,3.65-9.68,8.9-12.15,15.47-1.44,3.79-2.1,7.65-2.11,11.47,0,6.57,2.03,12.98,5.67,18.35,3.65,5.37,8.89,9.67,15.46,12.15l33.74,12.7Z"/>
  <path class="cls-1" d="M95.93,344.32c3.81,1.45,7.68,2.11,11.48,2.11,6.57,0,13-2.01,18.36-5.66,5.36-3.65,9.67-8.89,12.14-15.44,1.44-3.82,2.1-7.68,2.1-11.5,0-6.56-2.01-12.97-5.65-18.35-3.65-5.37-8.9-9.66-15.46-12.14l-33.75-12.71c-3.8-1.45-7.67-2.11-11.48-2.11-6.57,0-12.99,2.01-18.35,5.67-5.36,3.64-9.67,8.89-12.16,15.45-1.42,3.8-2.09,7.67-2.09,11.48,0,6.57,2.02,12.97,5.66,18.35,3.65,5.36,8.9,9.67,15.46,12.16l33.74,12.69Z"/>
</svg>