<?xml version="1.0" encoding="UTF-8"?>
<svg id="_レイヤー_1" data-name="レイヤー 1" xmlns="http://www.w3.org/2000/svg" viewBox="0 0 490 565">
  <defs>
    <style>
      .cls-1 {
        fill: #1b3a57;
      }
    </style>
  </defs>
  <path class="cls-1" d="M91.31,432.6h189.09c2.72-7.95,6.17-15.57,10.41-22.71H91.31v22.71h0Z"/>
  <rect class="cls-1" x="91.29" y="317.86" width="236.98" height="22.69"/>
  <rect class="cls-1" x="91.29" y="225.84" width="236.98" height="22.7"/>
  <rect class="cls-1" x="216.58" y="133.83" width="111.7" height="22.69"/>
  <path class="cls-1" d="M48.3,505.16c-11.69,0-21.15-9.47-21.15-21.19V183h129.27c14.26,0,25.87-11.64,25.87-26.01V27.21h189.02c11.61,0,21.14,9.47,21.14,21.19v300.1c1.84-.16,3.61-.16,5.45-.16,7.45,0,14.66.64,21.7,1.93V48.4c0-26.73-21.7-48.4-48.29-48.4h-195.98c-14.09,0-27.63,5.54-37.56,15.58L15.54,138.05c-10.01,9.95-15.54,23.52-15.54,37.65v308.28c0,26.73,21.63,48.39,48.3,48.39h240.67c-4.65-8.5-8.33-17.65-10.89-27.2H48.3ZM158.18,33.63v108.83c0,11.73-4.56,16.3-16.34,16.3H33.24l124.94-125.12Z"/>
  <path class="cls-1" d="M397.9,380.4c-50.87,0-92.11,41.32-92.11,92.3s41.24,92.3,92.11,92.3,92.1-41.32,92.1-92.3c0-50.98-41.24-92.3-92.1-92.3ZM457.4,442.59l-49.17,59.76c-3.11,3.93-7.71,6.4-12.7,6.83-4.99.42-9.94-1.24-13.67-4.6l-29.88-26.91c-2.25-2.02-3.6-4.85-3.75-7.88-.16-3.02.9-5.98,2.93-8.22l4.02-4.44c2.03-2.24,4.87-3.58,7.9-3.72,3.02-.13,5.98.94,8.2,2.99l24.95,23,50.63-46.87c2.85-2.5,7.12-2.42,9.86.21,2.74,2.61,3.03,6.9.69,9.85Z"/>
</svg>