<?xml version="1.0" encoding="UTF-8"?>
<svg id="_レイヤー_1" data-name="レイヤー 1" xmlns="http://www.w3.org/2000/svg" viewBox="0 0 506.98 126.69">
  <defs>
    <style>
      .cls-1 {
        fill: #1b3a57;
      }

      .cls-2 {
        fill: #f9f9f9;
      }
    </style>
  </defs>
  <path class="cls-1" d="M490.94,0H16.04C7.18,0,0,7.18,0,16.04v71.54c0,8.86,7.18,16.04,16.04,16.04h222.49l12.5,21.65c1.09,1.89,3.82,1.89,4.92,0l12.5-21.65h222.49c8.86,0,16.04-7.18,16.04-16.04V16.04c0-8.86-7.18-16.04-16.04-16.04Z"/>
  <g>
    <path class="cls-2" d="M29.31,69.53v-33.76h2.46v31.54h19.44v2.22h-21.9Z"/>
    <path class="cls-2" d="M71.85,69.77c-2.51,0-4.83-.43-6.97-1.28-2.14-.85-4-2.06-5.6-3.62-1.59-1.56-2.82-3.38-3.69-5.45s-1.3-4.33-1.3-6.78.43-4.7,1.3-6.78,2.1-3.89,3.69-5.45c1.59-1.56,3.46-2.77,5.6-3.62,2.14-.85,4.46-1.28,6.97-1.28s4.83.43,6.97,1.28c2.14.85,4,2.05,5.57,3.59,1.58,1.54,2.8,3.35,3.69,5.43.88,2.07,1.33,4.35,1.33,6.83s-.44,4.75-1.33,6.83c-.89,2.07-2.11,3.88-3.69,5.43-1.58,1.54-3.43,2.74-5.57,3.59-2.14.85-4.46,1.28-6.97,1.28ZM71.85,67.51c2.15,0,4.15-.37,5.98-1.11,1.83-.74,3.42-1.78,4.78-3.14s2.4-2.93,3.16-4.73c.76-1.8,1.13-3.76,1.13-5.88s-.38-4.12-1.13-5.91c-.76-1.78-1.81-3.35-3.16-4.7s-2.94-2.4-4.78-3.14c-1.83-.74-3.83-1.11-5.98-1.11s-4.15.37-5.98,1.11c-1.83.74-3.43,1.78-4.8,3.14-1.37,1.35-2.43,2.92-3.18,4.7-.76,1.78-1.13,3.75-1.13,5.91s.38,4.08,1.13,5.88c.76,1.8,1.82,3.38,3.18,4.73,1.37,1.35,2.97,2.4,4.8,3.14,1.83.74,3.83,1.11,5.98,1.11Z"/>
    <path class="cls-2" d="M112.37,69.77c-2.54,0-4.89-.43-7.04-1.28-2.15-.85-4.03-2.05-5.62-3.59s-2.82-3.35-3.69-5.43c-.87-2.07-1.3-4.35-1.3-6.83s.43-4.75,1.3-6.83,2.11-3.88,3.71-5.43,3.48-2.74,5.62-3.59c2.14-.85,4.49-1.28,7.07-1.28s4.71.39,6.8,1.16c2.09.77,3.87,1.93,5.35,3.47l-1.54,1.64c-1.48-1.45-3.1-2.48-4.85-3.09-1.75-.61-3.66-.92-5.72-.92-2.19,0-4.21.37-6.08,1.11-1.87.74-3.49,1.78-4.87,3.14-1.38,1.35-2.45,2.93-3.21,4.73-.76,1.8-1.13,3.76-1.13,5.88s.38,4.08,1.13,5.88c.76,1.8,1.82,3.38,3.21,4.73,1.38,1.35,3.01,2.4,4.87,3.14,1.86.74,3.89,1.11,6.08,1.11,1.99,0,3.88-.31,5.67-.92,1.78-.61,3.42-1.62,4.9-3.04l1.4,1.88c-1.51,1.45-3.32,2.53-5.43,3.26-2.11.72-4.32,1.09-6.63,1.09ZM122.06,65.19v-12.4h2.36v12.64l-2.36-.24Z"/>
    <path class="cls-2" d="M135.23,69.53v-33.76h2.46v33.76h-2.46Z"/>
    <path class="cls-2" d="M163.74,69.77c-2.51,0-4.83-.43-6.97-1.28-2.14-.85-4-2.05-5.57-3.59-1.58-1.54-2.8-3.35-3.67-5.43-.87-2.07-1.3-4.35-1.3-6.83s.43-4.75,1.3-6.83,2.1-3.88,3.69-5.43,3.45-2.74,5.57-3.59c2.12-.85,4.44-1.28,6.95-1.28,2.38,0,4.61.39,6.68,1.16,2.07.77,3.85,1.95,5.33,3.52l-1.54,1.59c-1.45-1.41-3.05-2.44-4.8-3.06-1.75-.63-3.61-.94-5.57-.94-2.15,0-4.16.37-6,1.11-1.85.74-3.46,1.78-4.82,3.14-1.37,1.35-2.43,2.93-3.18,4.73-.76,1.8-1.13,3.76-1.13,5.88s.38,4.08,1.13,5.88c.76,1.8,1.82,3.38,3.18,4.73,1.37,1.35,2.97,2.4,4.82,3.14,1.85.74,3.85,1.11,6,1.11,1.96,0,3.82-.31,5.57-.94,1.75-.63,3.35-1.66,4.8-3.11l1.54,1.59c-1.48,1.58-3.26,2.76-5.33,3.55-2.07.79-4.3,1.18-6.68,1.18Z"/>
    <path class="cls-2" d="M178.35,69.53l15.53-33.76h2.46l15.53,33.76h-2.65l-14.66-32.22h1.06l-14.62,32.22h-2.65ZM184.04,60.03l.82-2.07h20.21l.82,2.07h-21.85Z"/>
    <path class="cls-2" d="M218,69.53v-33.76h12.11c2.83,0,5.26.45,7.28,1.35,2.03.9,3.58,2.19,4.68,3.88,1.09,1.69,1.64,3.74,1.64,6.15s-.55,4.37-1.64,6.05c-1.09,1.69-2.65,2.99-4.68,3.91-2.03.92-4.45,1.38-7.28,1.38h-10.76l1.11-1.16v12.2h-2.46ZM220.46,57.47l-1.11-1.16h10.76c3.63,0,6.39-.8,8.27-2.41,1.88-1.61,2.82-3.86,2.82-6.75s-.94-5.19-2.82-6.78c-1.88-1.59-4.64-2.39-8.27-2.39h-10.76l1.11-1.21v20.69ZM241.44,69.53l-8.78-12.25h2.8l8.78,12.25h-2.8Z"/>
    <path class="cls-2" d="M278.1,35.87c-.19,1.3-.77,4.92-1.35,8.01,2.6-.19,4.97-.39,6.17-.39,3.86,0,7.33,1.25,7.33,7.52,0,5.79-.82,13.36-2.85,17.27-1.45,3.14-3.71,3.81-6.51,3.81-1.83,0-4.15-.39-5.59-.72l-.39-2.65c2.07.68,4.49.96,5.88.96,1.88,0,3.47-.34,4.58-2.7,1.69-3.62,2.51-10.13,2.51-15.63,0-4.73-2.27-5.69-5.4-5.69-1.4,0-3.71.19-6.27.39-1.74,6.85-4.87,17.27-10.32,26.09l-2.51-1.01c4.97-6.7,8.88-18.62,10.37-24.84-2.99.29-5.84.58-7.28.72-.92.1-2.65.29-3.76.48l-.29-2.8c1.4.05,2.41.05,3.81,0,1.64-.05,4.82-.34,8.01-.58.77-3.33,1.35-7.33,1.4-10.71l2.85.29c-.1.68-.24,1.4-.39,2.17ZM304.1,56.46l-2.32,1.16c-1.54-4.73-5.55-13.07-8.88-16.83l2.17-1.11c2.99,3.76,7.33,12.4,9.02,16.79ZM300.53,39.15l-1.93.87c-.92-1.93-2.65-4.92-4-6.7l1.88-.82c1.21,1.69,2.94,4.58,4.05,6.66ZM305.73,37.31l-1.93.87c-1.06-2.12-2.65-4.87-4.1-6.66l1.83-.82c1.3,1.74,3.18,4.77,4.2,6.61Z"/>
    <path class="cls-2" d="M318.28,65.53c2.6,3.86,7.33,5.64,13.46,5.88,5.11.19,16.16.05,21.46-.24-.29.53-.67,1.54-.77,2.27-5.06.14-15.43.24-20.6.1-6.66-.24-11.38-2.12-14.47-5.98-2.22,2.17-4.49,4.39-6.85,6.56l-1.35-2.22c2.12-1.64,4.68-3.91,6.95-6.17v-13.6h-6.46v-2.22h8.63v15.63ZM317.84,41.41c-1.4-2.46-4.63-5.88-7.67-8.25l1.78-1.21c3.04,2.27,6.32,5.64,7.77,8.1l-1.88,1.35ZM352.81,60.85h-32.12v-1.98h9.21v-5.4h-7.62v-1.93h7.62v-4.05h2.22v4.05h9.21v-4.05h2.27v4.05h7.72v1.93h-7.72v5.4h9.21v1.98ZM332.75,34.76h-10.95v-1.83h13.07v7.52h-10.08v3.33c0,.87.29,1.06,1.98,1.06h6.13c1.3,0,1.5-.29,1.64-2.7.43.34,1.21.58,1.88.72-.24,3.04-.96,3.76-3.13,3.76h-6.61c-3.13,0-3.96-.48-3.96-2.85v-5.21h10.03v-3.81ZM333.52,62.59c-2.46,2.36-6.22,4.82-9.36,6.42-.39-.39-1.25-1.21-1.74-1.54,3.18-1.45,6.8-3.47,9.02-5.6l2.07.72ZM332.12,58.87h9.21v-5.4h-9.21v5.4ZM348.37,34.76h-10.76v-1.83h12.88v7.52h-9.89v3.28c0,.92.29,1.11,2.12,1.11h6.8c1.35,0,1.59-.34,1.74-2.94.43.34,1.25.58,1.83.72-.19,3.23-.92,4-3.28,4h-7.19c-3.23,0-4.1-.48-4.1-2.89v-5.16h9.84v-3.81ZM349.53,69.2c-2.03-1.88-5.59-4.24-9.02-6.03l1.59-1.16c3.52,1.74,7.33,4.1,9.6,5.98l-2.17,1.21Z"/>
    <path class="cls-2" d="M365.16,37.51c-1.11,5.21-2.46,14.13-2.46,19.87,0,3.18.19,5.69.68,8.87.82-2.51,2.22-6.22,3.09-8.39l1.4,1.06c-1.06,2.99-2.99,7.96-3.42,10.13-.14.68-.24,1.54-.19,2.17.05.43.14,1.06.19,1.5l-2.17.19c-.96-3.52-1.79-8.68-1.79-15.19,0-6.99,1.69-16.25,2.32-20.4.14-1.01.24-1.93.24-2.7l2.8.29c-.24.68-.53,1.74-.68,2.6ZM389.52,37.46c-.1,1.5-.15,4.05-.15,6.32,3.14-.19,6.17-.58,8.83-1.11v2.36c-2.8.48-5.79.82-8.83,1.06.05,4.77.43,10.27.63,14.86,3.81,1.45,6.99,3.81,9.65,6.22l-1.4,2.12c-2.6-2.46-5.26-4.58-8.2-5.98.05.72.05,1.4.05,2.03,0,3.33-1.45,7.23-7.72,7.23s-9.5-2.46-9.5-6.37c0-3.57,3.28-6.66,9.45-6.66,1.88,0,3.62.24,5.26.63-.19-4.15-.48-9.79-.53-13.99-1.79.1-3.57.15-5.35.15-2.75,0-5.11-.15-7.91-.34v-2.36c2.7.24,5.21.39,8.01.39,1.74,0,3.52-.05,5.26-.1,0-2.56,0-4.87.05-6.42,0-.87-.05-2.03-.14-2.85h2.85c-.14,1.01-.24,1.88-.29,2.8ZM381.75,70.35c4.73,0,5.98-2.36,5.98-5.79,0-.58,0-1.35-.05-2.22-1.74-.53-3.57-.87-5.6-.87-4.1,0-6.99,1.83-6.99,4.49,0,2.8,2.65,4.39,6.66,4.39ZM397.14,40.11l-1.93.72c-.72-2.07-2.03-5.16-2.94-6.95l1.83-.58c.87,1.64,2.27,4.82,3.04,6.8ZM401.91,38.62l-1.93.72c-.77-2.17-1.98-5.11-2.99-6.85l1.83-.58c.92,1.69,2.32,4.73,3.09,6.7Z"/>
    <path class="cls-2" d="M418.12,33.17l3.09.14c-.24,1.06-.63,4-.96,7.62.24-.05.39-.1.58-.14l1.11,1.16c-.63.92-1.4,2.12-2.03,3.28-.14,1.25-.19,2.56-.29,3.86,3.62-3.57,10.37-8.78,15.29-8.78,4.1,0,6.27,2.22,6.27,6.08,0,4.73-1.98,13.75-1.98,18.57,0,1.83.87,3.42,2.94,3.42,2.6,0,5.26-1.5,7.91-4.34l.48,2.6c-2.75,2.85-5.84,4.24-8.68,4.24-2.99,0-4.97-1.78-4.97-5.35,0-5.45,1.83-13.89,1.83-18.71,0-3.09-1.54-4.24-4.24-4.24-4.15,0-10.27,4.44-15.05,9.6-.1,2.41-.19,4.73-.19,6.7,0,4.68-.05,6.95.14,11.14.05.82.14,1.69.19,2.46h-2.75c.1-.77.14-1.64.14-2.41,0-4.63.05-6.61.05-11.43,0-1.06.1-2.89.24-5.06-2.51,3.71-6.22,9.02-9.02,12.93l-1.64-2.07c2.65-3.42,8.63-11.62,10.9-15.19.14-1.88.24-3.81.39-5.6-2.03.29-6.61.87-9.84,1.35l-.24-2.6c.87.05,1.69,0,2.51-.05,1.64-.14,5.06-.48,7.72-.92.14-2.6.29-4.58.29-5.11,0-.92,0-2.07-.19-3.13Z"/>
    <path class="cls-2" d="M466.69,36.25c2.46,0,14.62-.39,17.08-.63,1.11-.14,1.5-.19,1.98-.34l1.74,1.88c-.72.53-1.59,1.16-2.41,1.83-2.22,1.83-9.69,8.25-13.84,11.77,2.56-.92,5.4-1.25,7.96-1.25,7.91,0,13.36,4.63,13.36,10.85,0,7.81-6.75,12.3-16.11,12.3-6.51,0-9.89-2.75-9.89-6.27,0-2.94,2.6-5.55,6.7-5.55,6.03,0,9.02,4.15,9.65,8.63,4.44-1.5,7.23-4.58,7.23-9.16,0-4.92-4.68-8.83-11.33-8.83-8.39,0-12.44,3.04-19.1,9.5l-1.83-1.78c4.34-3.67,10.76-8.97,13.55-11.33,2.7-2.22,9.31-7.91,11.82-10.08-2.65.1-14.04.63-16.54.72-.96.1-1.78.15-2.8.24l-.05-2.6c.92.1,2.07.1,2.85.1ZM476.14,70.45c1.59,0,3.13-.14,4.53-.39-.48-4.24-3.23-7.28-7.48-7.28-2.41,0-4.39,1.54-4.39,3.47,0,2.65,3.04,4.2,7.33,4.2Z"/>
  </g>
</svg>