<?xml version="1.0" encoding="UTF-8"?>
<svg id="_レイヤー_1" data-name="レイヤー 1" xmlns="http://www.w3.org/2000/svg" viewBox="0 0 348.09 96.67">
  <defs>
    <style>
      .cls-1 {
        fill: #1b3a57;
      }
    </style>
  </defs>
  <g>
    <path class="cls-1" d="M0,96.06v-53.58h7.65v46.92h29.01v6.66H0Z"/>
    <path class="cls-1" d="M69.65,96.67c-4.08,0-7.87-.69-11.37-2.07-3.5-1.38-6.52-3.3-9.07-5.78-2.55-2.47-4.54-5.37-5.97-8.69-1.43-3.32-2.14-6.94-2.14-10.87s.71-7.55,2.14-10.87c1.43-3.32,3.42-6.21,5.97-8.69,2.55-2.47,5.56-4.4,9.03-5.78,3.47-1.38,7.27-2.07,11.4-2.07s7.86.68,11.33,2.03c3.47,1.35,6.48,3.27,9.03,5.74,2.55,2.48,4.53,5.38,5.93,8.73,1.4,3.34,2.11,6.98,2.11,10.91s-.7,7.63-2.11,10.94c-1.4,3.32-3.38,6.21-5.93,8.69-2.55,2.48-5.56,4.39-9.03,5.74-3.47,1.35-7.25,2.03-11.33,2.03ZM69.57,89.86c3.01,0,5.78-.51,8.31-1.53,2.52-1.02,4.72-2.46,6.58-4.32,1.86-1.86,3.32-4.04,4.36-6.54,1.04-2.5,1.57-5.23,1.57-8.19s-.52-5.68-1.57-8.15c-1.05-2.47-2.5-4.66-4.36-6.54-1.86-1.89-4.06-3.34-6.58-4.36-2.53-1.02-5.3-1.53-8.31-1.53s-5.7.51-8.23,1.53c-2.53,1.02-4.73,2.48-6.62,4.36-1.89,1.89-3.36,4.07-4.4,6.54-1.05,2.48-1.57,5.19-1.57,8.15s.52,5.69,1.57,8.19c1.04,2.5,2.51,4.68,4.4,6.54,1.89,1.86,4.1,3.3,6.62,4.32,2.52,1.02,5.27,1.53,8.23,1.53Z"/>
    <path class="cls-1" d="M133.94,96.67c-4.13,0-7.93-.68-11.4-2.03-3.47-1.35-6.48-3.26-9.03-5.74-2.55-2.47-4.54-5.37-5.97-8.69-1.43-3.32-2.14-6.96-2.14-10.94s.71-7.63,2.14-10.94c1.43-3.32,3.43-6.21,6.01-8.69,2.58-2.47,5.6-4.39,9.07-5.74,3.47-1.35,7.3-2.03,11.48-2.03s8.11.69,11.63,2.07c3.52,1.38,6.51,3.44,8.96,6.2l-4.75,4.75c-2.19-2.14-4.58-3.71-7.16-4.71-2.58-.99-5.37-1.49-8.38-1.49s-5.91.51-8.53,1.53c-2.63,1.02-4.9,2.45-6.81,4.29-1.91,1.84-3.39,4.02-4.44,6.54-1.05,2.53-1.57,5.27-1.57,8.23s.52,5.63,1.57,8.15c1.04,2.53,2.53,4.72,4.44,6.58,1.91,1.86,4.17,3.3,6.77,4.32,2.6,1.02,5.43,1.53,8.5,1.53,2.86,0,5.6-.45,8.23-1.34,2.63-.89,5.06-2.38,7.31-4.48l4.36,5.82c-2.65,2.25-5.75,3.94-9.3,5.09s-7.21,1.72-10.98,1.72ZM146.87,88.86v-19.9h7.35v20.89l-7.35-.99Z"/>
    <path class="cls-1" d="M168.84,96.06v-53.58h7.65v53.58h-7.65Z"/>
    <path class="cls-1" d="M216.52,96.67c-4.08,0-7.85-.68-11.29-2.03-3.45-1.35-6.43-3.26-8.96-5.74-2.53-2.47-4.5-5.37-5.93-8.69-1.43-3.32-2.14-6.96-2.14-10.94s.71-7.63,2.14-10.94c1.43-3.32,3.42-6.21,5.97-8.69,2.55-2.47,5.55-4.39,8.99-5.74,3.45-1.35,7.21-2.03,11.29-2.03s7.95.7,11.44,2.1c3.5,1.4,6.47,3.48,8.92,6.24l-4.97,4.82c-2.04-2.14-4.34-3.74-6.89-4.78-2.55-1.04-5.28-1.57-8.19-1.57s-5.8.51-8.38,1.53c-2.58,1.02-4.81,2.45-6.7,4.29-1.89,1.84-3.36,4.02-4.4,6.54-1.05,2.53-1.57,5.27-1.57,8.23s.52,5.7,1.57,8.23c1.05,2.53,2.51,4.71,4.4,6.54,1.89,1.84,4.12,3.27,6.7,4.29,2.58,1.02,5.37,1.53,8.38,1.53s5.64-.52,8.19-1.57c2.55-1.05,4.85-2.67,6.89-4.86l4.97,4.82c-2.45,2.76-5.42,4.85-8.92,6.28-3.5,1.43-7.33,2.14-11.52,2.14Z"/>
    <path class="cls-1" d="M239.79,96.06l24.26-53.58h7.58l24.34,53.58h-8.04l-21.66-49.29h3.06l-21.66,49.29h-7.88ZM250.12,82.66l2.07-6.12h30.16l2.22,6.12h-34.44Z"/>
    <path class="cls-1" d="M303.92,96.06v-53.58h20.89c4.69,0,8.7.74,12.02,2.22,3.32,1.48,5.87,3.62,7.65,6.43,1.79,2.81,2.68,6.15,2.68,10.03s-.89,7.21-2.68,9.99c-1.79,2.78-4.34,4.91-7.65,6.39-3.32,1.48-7.32,2.22-12.02,2.22h-16.68l3.44-3.52v19.82h-7.65ZM311.58,77l-3.44-3.75h16.45c4.9,0,8.61-1.06,11.14-3.18,2.53-2.12,3.79-5.09,3.79-8.92s-1.26-6.79-3.79-8.88c-2.53-2.09-6.24-3.14-11.14-3.14h-16.45l3.44-3.83v31.69ZM339.74,96.06l-13.62-19.44h8.19l13.78,19.44h-8.34Z"/>
  </g>
  <g>
    <path class="cls-1" d="M24.37,12.47c0,.8,0,1.58.02,2.38h6.35c.76-.95.95-1.07,1.07-1.07.11,0,.23.06,1.22.82.44.36.48.48.48.59,0,.13-.06.19-.27.19h-8.86c.02,2.19.06,3.13.06,3.53,0,.42-.29.61-.88.61-.4,0-.59-.15-.59-.53,0-.36.04-1.26.08-3.62h-6.6c-.59,0-.95.04-1.56.13l-.21-.78c.71.13,1.14.13,1.79.13h6.58c0-.8.02-1.58.02-2.38h-4.44v.5c0,.42-.23.57-.76.57-.42,0-.55-.13-.55-.44,0-.48.06-1.51.06-4.84,0-1.81,0-2.46-.11-3.37.61.25.99.44,1.56.78h4.25v-2.19h-6.37c-.59,0-.95.04-1.54.13l-.23-.8c.69.13,1.12.15,1.77.15h6.37c-.02-1.77-.04-2.21-.13-2.78,1.83.21,2.08.31,2.08.57,0,.17-.11.29-.71.55v1.66h6.08c.84-.97.92-1.03,1.05-1.03s.25.04,1.16.78c.42.34.48.48.48.59,0,.13-.06.19-.27.19h-8.5v2.19h4.59c.57-.65.65-.69.76-.69s.19.04.84.59c.31.25.38.36.38.48,0,.15-.09.25-.59.59v1.72c0,2.92.08,4.08.08,4.35,0,.44-.23.59-.78.59-.38,0-.57-.08-.57-.44v-.4h-4.69ZM23.11,6.2h-4.46v2.55h4.46v-2.55ZM23.09,11.95c0-.88.02-1.79.02-2.67h-4.46v2.67h4.44ZM29.06,8.75v-2.55h-4.71v2.55h4.71ZM29.06,11.95v-2.67h-4.71c0,.88,0,1.79.02,2.67h4.69Z"/>
    <path class="cls-1" d="M43.15,16.85c.88-.61,1.81-1.37,2.38-2.06.38-.44.65-.8.82-1.16,1.2.48,1.64.76,1.64.93,0,.27-.19.34-.9.32-1.16.97-2.23,1.6-3.53,2.12.9.29,2.44.53,5.38.53,2,0,5.03-.19,7.68-.55.13-.02.13.21.02.27-.48.25-.57.38-.63.78-.04.38-.11.44-.4.46-2.25.19-3.95.25-5.93.25-4.46,0-6.16-.5-7.15-1.28-.69-.55-1.35-1.33-1.81-2.48-.63,1.03-1.41,2.08-2.19,2.9.04.67-.08.9-.23.9-.25,0-.42-.27-1.28-1.83.42-.15.8-.34,1.22-.59.44-.25,1.05-.72,1.66-1.33v-5.47h-1.12c-.65,0-.97.02-1.51.13l-.21-.78c.69.11,1.07.13,1.72.13h.97c.59-.65.67-.71.78-.71s.21.06.82.59c.31.25.36.38.36.48s-.04.21-.55.53v5.05c.57.95,1.16,1.45,1.87,1.81l.13.06ZM38.18.97c1.98.74,3.03,1.87,3.03,2.82,0,.63-.31.97-.78.97-.34,0-.5-.21-.65-.78-.25-.95-.84-1.98-1.77-2.84-.08-.08.04-.21.17-.17ZM46.09,10.29h-1.56c-.44,0-.71.04-1.24.13l-.19-.78c.59.1.93.13,1.47.13h1.52c0-.86,0-1.35-.08-1.98,1.66.15,1.87.27,1.87.46,0,.13-.11.27-.59.48v1.03h3.18c0-.86,0-1.35-.08-1.98,1.66.15,1.87.27,1.87.46,0,.13-.11.27-.59.48v1.03h1.35c.71-.82.84-.95.97-.95s.25.1,1.03.78c.32.27.4.4.4.51,0,.13-.06.19-.27.19h-3.47v2.4h2.06c.76-.9.9-1.01,1.01-1.01.13,0,.29.11,1.12.78.38.31.42.44.42.57s-.06.19-.27.19h-12.12c-.44,0-.71.02-1.22.11l-.21-.74c.57.08.88.11,1.41.11h2.23v-2.4ZM47.15,1.7h-2.86c-.63,0-.99.02-1.54.15l-.21-.8c.69.1,1.07.13,1.72.13h2.69c.55-.59.63-.65.74-.65s.21.04.76.53c.29.25.34.38.34.48,0,.15-.06.21-.53.53v.42c0,.99.04,1.3.04,1.51,0,.38-.23.5-.69.5-.34,0-.46-.08-.46-.38h-3.07v1.37c0,.65.11.8,1.54.8,1.54,0,1.91-.06,2.12-.27.21-.19.36-.46.61-1.14.04-.08.21-.06.21.04,0,.25-.02.61-.02.76,0,.21.08.27.23.34.19.08.23.21.23.4,0,.29-.23.5-.61.63-.42.11-1.16.19-2.94.19-2.19,0-2.48-.34-2.48-1.45,0-.29.02-.57.02-1.2,0-.59,0-.8-.11-1.68.53.25.86.4,1.35.69h2.92v-1.89ZM50.47,12.68v-2.4h-3.18v2.4h3.18ZM54.09,1.7h-2.97c-.65,0-1.01.02-1.56.15l-.21-.8c.69.1,1.09.13,1.75.13h2.8c.53-.59.59-.65.72-.65.1,0,.21.04.78.53.32.25.34.38.34.48,0,.13-.06.21-.5.53v.46c0,.88.04,1.39.04,1.6,0,.36-.25.48-.71.48-.34,0-.46-.11-.46-.4v-.08h-3.13v1.26c0,.82.06.9,1.98.9,1.26,0,1.72-.13,1.98-.34.27-.21.44-.55.69-1.2.04-.08.21-.06.21.04-.02.36-.04.69-.04.88,0,.23.06.27.23.34.21.08.27.21.27.4,0,.32-.34.5-.78.61-.48.11-1.28.21-2.5.21-2.9,0-3.2-.25-3.2-1.54,0-.27.04-.57.04-1.18,0-.55,0-.76-.11-1.6.51.21.84.38,1.35.67h3.01v-1.89ZM50.53,13.78c2.46.48,3.79,1.39,3.79,2.36,0,.4-.25.67-.59.67-.25,0-.4-.1-.69-.55-.61-.95-1.35-1.54-2.61-2.25-.11-.06-.02-.25.1-.23Z"/>
    <path class="cls-1" d="M73.52,6.58c.02.65.06,1.32.06,2.02,0,1.81-.04,3.51-.71,5.3-.86,2.27-2.67,4.02-5.09,4.02-1.66,0-2.8-.46-3.76-1.66-.72-.88-1.09-2-1.09-3.64,0-2.71,1.28-5.32,2.86-7.63-.44.13-1.01.21-1.41.21-.57,0-1.14-.04-1.58-.38-.36-.27-.82-.78-.82-1.14,0-.15.08-.25.21-.25.17,0,.21.06.34.19.4.4.8.63,1.47.63.53,0,1.72-.27,2.69-.67.21-.08.4-.19.63-.38.13-.1.29-.21.53-.21.21,0,.38.04.61.17.29.17.38.34.38.57s-.21.4-.44.48c-.57.23-.88.38-1.26.76-1.85,1.87-3.37,4.88-3.37,7.63,0,1.33.42,2.33.99,2.99.71.8,1.7,1.05,2.78,1.05,2,0,3.77-1.45,4.48-3.32.8-2.1.95-4.04.95-6.27,0-1.03.02-2.06-.36-3.03-.06-.17-.17-.4-.17-.48,0-.25.08-.48.48-.48.46,0,.82.32.82.8,0,.15,0,.29.02.44.06.8.25,1.3.44,1.72.86,1.81,2,3.03,3.22,4.12.5.44.78.88.78,1.45,0,.29-.25.53-.55.53-.21,0-.55-.17-.76-.38-1.52-1.6-2.63-3.3-3.28-5.17l-.08.02ZM75.28,2.17c.65.23,1.18.53,1.56.84.44.36.9.9.9,1.37,0,.38-.21.61-.53.61-.29,0-.42-.17-.69-.69-.25-.48-.93-1.24-1.56-1.7-.09-.06-.13-.15-.13-.21,0-.13.11-.23.23-.23.06,0,.15,0,.21.02ZM77.18.9c.48.13,1.09.42,1.49.69.48.34.95.86.95,1.35,0,.36-.25.57-.48.57-.25,0-.4-.08-.69-.57-.34-.59-1.03-1.26-1.72-1.68-.06-.04-.08-.15-.08-.21,0-.11.08-.21.21-.21.06,0,.19.02.34.06Z"/>
    <path class="cls-1" d="M88.62,9.04c.86-.67,1.87-1.05,2.57-1.05,1.09,0,1.81.63,1.87,1.87.02.25.04.59.04.86,1.56-.93,3.13-1.87,4.35-2.69.19-.13.23-.23.23-.36,0-.11-.06-.19-.19-.27-.19-.13-.42-.21-.74-.25-.13-.02-.19-.02-.19-.13,0-.19.4-.34.84-.34.5,0,1.07.21,1.56.5.55.34.86.59.86.99,0,.27-.19.42-.42.44-.15.02-.34.04-.63.17-1.01.42-2.33,1.05-3.83,1.85-.57.32-1.22.69-1.85,1.05,0,.88.02,1.83.02,3.03,0,.57-.29.8-.57.8-.29,0-.59-.23-.59-.57,0-.65.04-1.45.06-2.63-1.2.67-2.92,1.64-2.92,3.16,0,.95.74,1.56,2.44,1.56,1.01,0,2.29-.06,3.18-.17.5-.06.8-.13,1.16-.21.27-.06.5-.13.8-.13.76,0,1.28.42,1.28.84,0,.38-.29.59-1.22.67-1.03.08-2.27.13-3.98.13-3.34,0-4.37-1.05-4.37-2.57,0-1.93,1.68-3.07,3.66-4.27v-.88c.02-1.45-.38-1.83-1.03-1.83-.93,0-1.85.61-2.67,1.39-.74.71-1.16,1.22-1.89,2.25-.13.19-.4.32-.53.32-.29,0-.57-.27-.57-.65,0-.34.15-.55.61-1.03.74-.76,1.54-1.7,2.12-2.54.59-.84,1.01-1.58,1.51-2.52-.55.06-1.28.17-2.02.17-1.12,0-1.68-.27-2.27-1.14-.06-.1-.1-.23-.1-.29,0-.13.08-.27.19-.27.13,0,.23.08.34.19.55.53.97.61,1.77.61.74,0,1.79-.15,2.61-.34.29-.63.44-1.03.63-1.6.06-.21.15-.53.15-.78,0-.34-.4-.57-1.3-.57-.15,0-.23-.02-.23-.1s.06-.21.23-.32c.21-.13.55-.19.78-.19.46,0,.88.17,1.24.34.36.17.92.53.92.95,0,.21-.08.36-.25.46-.13.08-.34.25-.55.67-.13.23-.32.59-.48.9.55-.17,1.26-.42,1.94-.8.34-.19.71-.38,1.07-.38.42,0,.69.25.69.53,0,.32-.15.44-.67.65-1.07.42-2.4.84-3.62,1.12-.67,1.18-1.32,2.29-2.08,3.37l.04.04Z"/>
    <path class="cls-1" d="M106.16,14.39c1.39.32,2.5.82,3.45,1.58.99.8,1.39,1.58,1.39,2.23,0,.61-.4,1.05-.9,1.05-.42,0-.71-.19-.97-.76-.69-1.6-1.85-2.88-3.24-3.66-.1-.06-.17-.13-.17-.27s.23-.21.44-.17Z"/>
    <path class="cls-1" d="M128.53,19.03c-.11.06-.27-.21-.17-.27,4.84-3.22,7.3-7.26,7.95-13.23.21-1.91.23-3.43.11-4.59,1.87.17,2.27.27,2.27.61,0,.19-.17.29-.74.53-.02.5-.02,1.01-.04,1.51.21,4.1,1.39,6.86,3.18,9.25,1.83,2.44,4.08,3.81,6.23,4.56.13.04.08.23-.04.25-.48.11-.69.25-.93.88-.08.21-.21.32-.36.32-.13,0-.4-.13-.91-.44-2.06-1.28-3.85-3.18-5.26-5.62-.93-1.62-1.75-3.77-2.1-6.75-.78,6.35-3.6,10.22-9.19,12.98Z"/>
    <path class="cls-1" d="M159.7,11.78h-4.12c-.61,0-.97.02-1.6.13l-.21-.78c.71.1,1.14.13,1.79.13h4.14v-4.9h-4.54c-.95,1.77-2.04,3.11-3.58,4.42-.08.08-.31-.08-.23-.19,1.49-1.81,2.73-4.31,3.47-6.63.21-.69.36-1.37.44-2,1.7.53,2.04.65,2.04.93,0,.19-.21.27-.82.42-.34.95-.69,1.77-1.05,2.52h4.27v-.42c0-2.63-.02-4.08-.13-4.9,1.98.19,2.23.34,2.23.59,0,.19-.13.34-.78.59v4.14h4.4c.97-1.14,1.07-1.22,1.18-1.22.13,0,.25.08,1.24.9.48.4.55.5.55.65,0,.11-.09.19-.27.19h-7.09v4.9h3.87c.95-1.09,1.03-1.16,1.16-1.16s.23.06,1.22.88c.46.38.5.48.5.61,0,.11-.06.19-.27.19h-6.48v5.78h5.49c1.03-1.18,1.11-1.24,1.24-1.24s.23.06,1.26.9c.55.44.61.57.61.67,0,.13-.08.19-.29.19h-16.22c-.71,0-1.11.04-1.74.15l-.21-.8c.76.11,1.22.13,1.96.13h6.58v-5.78Z"/>
    <path class="cls-1" d="M183.23,6.04c0,.61-.19,1.39-.4,2.06-.63,1.81-1.83,4.06-3.03,5.57-.67.82-1.39,1.41-2.08,1.41-.65,0-1.26-.46-1.68-1.09-.46-.74-.74-1.66-.74-2.78,0-2.06.88-3.89,2.29-5.22,1.37-1.28,3.41-2.27,6.1-2.27,4.23,0,7.19,2.76,7.19,6.56,0,4.42-4.61,6.63-8.92,6.86-.23.02-.36-.1-.36-.23,0-.17.06-.27.36-.34,3.51-.61,7.53-2.54,7.53-6.65,0-3.2-2.33-5.28-5.55-5.45-.34-.02-.78-.02-1.14,0,.29.46.42,1.03.42,1.56ZM177.95,6.69c-1.09,1.12-1.7,2.57-1.7,4.16,0,.9.19,1.51.51,2.12.23.42.63.71.99.71.38,0,.82-.36,1.47-1.22,1.24-1.64,2.27-3.6,2.9-5.51.23-.67.29-1.07.29-1.51s-.11-.74-.25-.88c-2.02.34-3.26,1.16-4.21,2.12Z"/>
    <path class="cls-1" d="M197.83,2.67c-.48,0-.78.04-1.33.13l-.21-.78c.63.1.97.13,1.56.13h3.58c.78-.93.88-.99.99-.99.13,0,.23.06,1.09.76.4.34.46.44.46.57s-.08.19-.29.19h-3.24c-.25,1.77-.69,3.51-1.45,5.13l.21.17h2.02c.55-.57.63-.61.74-.61s.19.04.74.48c.27.25.34.36.34.46,0,.15-.06.25-.48.53v2.36c0,3.64.08,5.2.08,5.62,0,.38-.27.53-.76.53-.34,0-.48-.08-.48-.46v-.78h-2.34v1.7c0,.4-.25.53-.76.53-.34,0-.5-.08-.5-.36,0-.44.1-3.32.1-5.99,0-.76.02-1.51.02-2.25-.51.78-1.09,1.51-1.77,2.21-.09.08-.32-.08-.23-.19,1.77-2.63,2.84-5.59,3.26-9.07h-1.35ZM201.38,8.5h-2.34v7.07h2.34v-7.07ZM209.02,7.57c.36-.74.61-1.3.82-1.85.17-.44.25-.8.34-1.3,1.56.53,1.72.59,1.72.84,0,.19-.17.27-.76.36-.55.8-.93,1.3-1.54,1.96h2.88c.74-.86.8-.93.93-.93s.23.06,1.03.71c.38.32.42.42.42.55,0,.11-.08.19-.27.19h-4.35v2.69h1.93c.65-.82.74-.88.86-.88s.23.06.99.67c.34.29.38.42.38.53,0,.13-.06.21-.27.21h-3.89v2.67h1.93c.67-.82.76-.9.88-.9s.27.08,1.03.72c.36.29.4.42.4.53,0,.13-.08.19-.29.19h-3.95v3.05h2.4c.78-.99.88-1.07,1.01-1.07.11,0,.25.08,1.09.84.38.34.42.46.42.57,0,.13-.06.19-.27.19h-8.81v.69c0,.4-.25.55-.76.55-.4,0-.55-.1-.55-.42,0-.59.09-1.91.13-7.57,0-.74.02-1.47.04-2.21-.53.53-1.09,1.05-1.75,1.58-.08.08-.29-.13-.21-.21,1.85-1.89,3.34-4.56,4.25-7.09h-2.04c-.09,1.24-.61,2.38-1.49,2.38-.4,0-.67-.27-.67-.67,0-.32.1-.48.5-.74.86-.55,1.22-1.35,1.33-2.38.02-.13.23-.1.25.02.06.27.09.57.11.86h2.21l.06-.19c.27-.86.46-1.68.53-2.42,1.6.38,1.87.48,1.87.74,0,.19-.19.31-.71.42-.15.5-.32.99-.46,1.45h4.31c.61-.67.69-.74.82-.74s.27.06,1.07.84c.4.38.42.5.42.63,0,.17-.17.25-.74.25-.27,0-.48.06-.78.36-.34.31-.67.61-1.2,1.01-.11.08-.27-.02-.23-.15.27-.57.48-1.05.67-1.68h-4.54c-.57,1.47-1.28,2.88-2.23,4.16h2.73ZM209.06,10.79v-2.69h-2.99v2.69h2.99ZM206.07,13.99h2.99v-2.67h-2.99v2.67ZM206.07,17.56h2.99v-3.05h-2.99v3.05Z"/>
    <path class="cls-1" d="M228.45,6.35c1.7,0,2.19,1.43,2.19,2.97,0,1.14-.38,3.18-.84,4.46-.38,1.14-.86,2.21-1.72,2.99-.55.55-1.14.84-1.75.84-.44,0-.65-.19-.76-.61-.04-.19-.13-.38-.32-.61-.29-.38-.76-.82-1.18-1.22-.09-.08-.09-.13-.09-.19,0-.08.09-.21.19-.21.06,0,.13.04.21.11.67.48,1.26.86,1.77,1.11.13.06.32.11.55.11.25,0,.53-.08.78-.34.76-.84,1.14-1.91,1.51-3.13.38-1.3.59-2.8.59-3.7,0-1.35-.4-1.89-1.24-1.89-.51,0-1.03.13-1.66.36-1.54,3.3-3.15,6.5-5.05,9.7-.13.23-.29.34-.57.34-.36,0-.61-.19-.61-.53,0-.15.04-.34.19-.55,1.81-2.82,3.51-5.66,4.92-8.67-.76.25-1.45.53-2.15.8-.29.1-.57.23-.8.38-.15.11-.27.17-.44.17-.25,0-.59-.13-.88-.4-.53-.5-.76-.9-.78-1.37,0-.34.1-.48.23-.48.08,0,.11.06.19.21.25.44.61.71,1.03.71.36,0,.74-.06,1.47-.27.69-.19,1.56-.42,2.52-.69.44-.97.69-1.64.97-2.5.08-.25.17-.55.17-.86,0-.4-.63-.78-1.35-.82-.15-.02-.23-.08-.23-.19,0-.06.04-.13.17-.21.15-.1.44-.17.8-.17.78,0,2.27.63,2.27,1.49,0,.15-.11.34-.29.42-.13.06-.31.25-.53.69-.27.63-.55,1.28-.84,1.91.44-.08.9-.15,1.35-.15ZM236.78,12.62c-.15,0-.31,0-.55-.15-.13-.08-.36-.17-.69-.17-.78,0-1.54.02-2.44.08-.19.02-.29-.08-.29-.25,0-.15.06-.21.23-.25.99-.19,1.83-.36,2.48-.55.21-.06.29-.15.29-.32,0-1.01-1.3-2.76-3.18-3.93-.09-.06-.13-.15-.13-.23,0-.1.09-.23.19-.23s.21.02.29.06c2.44,1.01,4.42,3.47,4.42,5.13,0,.57-.29.8-.63.8Z"/>
    <path class="cls-1" d="M245.73,6.63c-.84,0-1.75-.4-2.12-1.09-.04-.08-.08-.15-.08-.25,0-.08.1-.17.17-.17.11,0,.19.04.31.13.51.36,1.09.48,1.68.48.67.02,1.81-.13,2.82-.34.31-.76.53-1.39.74-2.06.06-.23.1-.57.1-.74s-.04-.32-.38-.53c-.23-.15-.5-.27-.8-.32-.08-.02-.17-.04-.17-.13,0-.21.27-.38.71-.38s1.12.23,1.64.48c.4.19.67.4.67.65,0,.21-.06.36-.25.48-.29.19-.36.44-.55.86-.15.34-.36.84-.61,1.41.44-.13,1.05-.34,1.79-.67.44-.21.82-.34,1.07-.34.29,0,.67.21.67.57,0,.38-.27.53-.69.67-.97.32-2.02.61-3.3.88-1.24,2.86-2.38,5.49-3.97,8.64-.15.32-.4.42-.69.42-.31,0-.57-.29-.57-.63,0-.13.04-.34.15-.5,1.54-2.5,2.84-5.05,4.02-7.76-.74.13-1.7.21-2.36.21ZM253.68,7.68c-.46,0-.84.04-1.12.08-.17.02-.31-.06-.31-.17,0-.17.08-.25.29-.32.44-.13,1.3-.23,1.79-.23,1.22,0,2.73.36,3.64.97.63.42.88.74.88,1.2,0,.25-.19.53-.53.53-.25,0-.53-.17-.69-.34-.51-.5-.99-.82-1.72-.82-1.09,0-2.02.78-2.02,1.89,0,1.26.36,2.65.65,4.12,1.52.48,3.26,1.26,3.89,1.83.29.25.36.53.36.74,0,.42-.32.61-.63.61-.19-.02-.38-.11-.55-.23-1.07-.84-1.96-1.43-2.99-1.83-.04.69-.19,1.37-.69,1.91-.48.5-1.26.8-2.52.8-1.85,0-2.88-.95-2.88-2,0-1.37,1.45-2.21,3.07-2.21.92,0,1.56.08,1.83.15-.13-1.14-.34-2.42-.34-3.37,0-1.64.76-2.42,2.4-2.9.13-.04.15-.13.02-.17-.61-.21-1.16-.25-1.83-.25ZM251.62,15.02c-1.35,0-2.44.46-2.44,1.33,0,.63.67,1.14,2.02,1.14.88,0,1.37-.17,1.75-.53.46-.42.55-.95.57-1.62-.46-.17-1.2-.32-1.89-.32Z"/>
    <path class="cls-1" d="M271.71,5.32c-2.04.95-3.57,1.47-5.72,1.98-.11.57-.21.65-.38.65s-.29-.15-.8-1.89c.38.02.9-.02,1.58-.08,1.87-.21,3.24-.42,5.24-.93.13-.02.19.21.08.27ZM264.89,19.1c1.87-.53,3.24-1.09,4.16-1.62.69-.4,1.18-.76,1.52-1.14,1.47.8,1.64.99,1.64,1.16,0,.15-.27.25-.99.13-1.68.93-3.51,1.49-6.27,1.77-.13.02-.19-.25-.06-.29ZM269.62,8.16c2.1-.82,3.49-1.91,4.42-3.32.4-.61.67-1.16.78-1.75,1.6.27,1.96.42,1.96.63,0,.15-.15.25-.69.4.76,1.03,1.62,1.87,2.94,2.54,1.3.67,2.99,1.03,4.67,1.16.13,0,.11.19-.02.23-.48.13-.67.29-.84.93-.04.17-.19.23-.29.23-.21,0-.57-.08-.93-.19-.74-.21-1.39-.5-2.02-.86.36.36.44.48.44.61,0,.1-.08.19-.42.36v1.87c0,3.16.08,4.42.08,4.77,0,.38-.27.53-.78.53-.38,0-.55-.1-.55-.42v-.13h-9.07v.21c0,.36-.25.53-.76.53-.4,0-.57-.13-.57-.44,0-.48.11-1.47.11-4.86,0-.86,0-1.47-.02-2-.76.15-1.56.27-2.44.38-.13.02-.19-.29-.06-.32.9-.17,1.75-.36,2.5-.57-.02-.44-.04-.8-.08-1.18.57.19.95.38,1.43.65h.21ZM265.98.82c1.91.38,3.13,1.26,3.13,2.21,0,.48-.34.8-.71.8-.34,0-.48-.17-.67-.63-.38-.9-.82-1.41-1.87-2.19-.08-.06.02-.21.13-.19ZM269.31,10.47h9.07v-1.79h-8.22c-.27.08-.57.17-.84.23v1.56ZM278.37,11h-9.07v1.79h9.07v-1.79ZM278.37,13.31h-9.07v1.91h9.07v-1.91ZM272.48,2.8c-.67.74-1.47,1.41-2.48,1.98-.11.06-.29-.13-.19-.21,1.05-.97,1.79-2.06,2.29-3.05.27-.53.48-1.03.61-1.51,1.58.57,1.81.67,1.81.88,0,.17-.11.29-.86.36-.23.36-.48.69-.74,1.03h7.51c.63-.65.69-.71.82-.71s.21.04.97.8c.38.38.4.48.4.59,0,.23-.13.29-.76.29-.21,0-.46.06-.69.27-.61.48-1.16.86-1.93,1.33-.11.06-.25-.08-.17-.19.51-.59.95-1.22,1.3-1.85h-7.89ZM278.25,8.16c.27-.27.42-.44.53-.5-.21-.13-.42-.27-.61-.42-.93-.67-1.72-1.56-2.44-2.84-.97,1.77-2.29,2.97-4.14,3.76h6.67ZM275.41,16.51c4.14.25,6.33,1.39,6.33,2.46,0,.32-.21.61-.59.61-.27,0-.53-.11-1.01-.5-1.01-.82-3.11-1.83-4.77-2.29-.13-.04-.08-.27.04-.27Z"/>
    <path class="cls-1" d="M298.12,6.69c.53-.9.82-1.51,1.03-2.1.19-.5.27-.76.34-1.12,1.2.42,1.81.71,1.81.93,0,.23-.17.32-.8.36-.63.8-1.14,1.33-1.81,1.93h4.52c.86-.99.95-1.05,1.07-1.05.1,0,.25.06,1.16.78.46.36.48.48.48.61s-.08.19-.27.19h-15.46v.69c-.04,3.03-.25,4.71-.74,6.35-.5,1.83-1.22,3.16-2.52,4.59-.09.08-.27-.04-.21-.15.88-1.54,1.37-2.94,1.7-4.63.32-1.56.46-3.24.46-5.74,0-1.09-.04-1.64-.15-2.48.61.25,1.03.48,1.64.84h7.74ZM296.02,1.56c0-.38-.02-.8-.11-1.43,1.87.21,2.12.34,2.12.57,0,.17-.13.32-.72.57v1.51h5.3c.86-.95.95-1.01,1.07-1.01s.25.06,1.12.8c.38.34.46.42.46.55,0,.11-.08.19-.29.19h-14.64c-.51,0-.88.02-1.45.13l-.21-.78c.65.11,1.05.13,1.64.13h5.7v-1.22ZM296.84,14.64h-3.07c-.5,0-.82.02-1.39.13l-.21-.8c.61.13.99.15,1.56.15h3.11v-2.88h-3.6c-.67,1.07-1.49,2-2.44,2.73-.11.08-.29-.04-.21-.15.91-1.2,1.66-2.71,2.1-3.98.23-.65.38-1.26.42-1.75,1.37.36,1.87.59,1.87.82s-.19.32-.76.4c-.19.48-.42.95-.67,1.39h3.28c0-1.41,0-2.25-.08-2.99,1.77.21,2.02.34,2.02.57,0,.13-.11.25-.67.53v1.89h3.87c.8-.95.9-1.01,1.01-1.01.13,0,.23.06,1.12.76.4.34.46.48.46.59,0,.13-.08.19-.29.19h-6.16v2.88h3.24c.78-.93.88-.97,1.01-.97.11,0,.23.04,1.09.76.38.32.42.42.42.55,0,.11-.06.19-.27.19h-5.49v3.37h5.07c.88-1.03.99-1.09,1.12-1.09.1,0,.21.06,1.16.84.42.36.5.46.5.59s-.08.19-.27.19h-14.32c-.53,0-.88.02-1.45.13l-.21-.8c.65.1,1.05.15,1.66.15h5.49v-3.37ZM292.65,3.58c1.3.5,2.25,1.41,2.25,2.19,0,.48-.23.8-.74.8-.29,0-.42-.21-.53-.67-.19-.86-.55-1.54-1.09-2.17-.04-.06.02-.17.11-.15Z"/>
    <path class="cls-1" d="M315.55,9.72c.1,0,.23.06.23.19,0,.06-.02.13-.04.21-.44,1.47-.82,2.86-1.05,3.83-.13.5-.27,1.09-.27,1.45,0,.46.06.9.06,1.2,0,.36-.15.55-.46.55s-.57-.17-.82-.76c-.48-1.2-.74-2.76-.74-4.16,0-2.06.55-4.54,1.01-6.29.15-.57.29-1.14.29-1.47,0-.57-.25-.95-.65-1.35-.08-.08-.17-.19-.17-.32,0-.1.11-.19.19-.19.48,0,1.12.67,1.45,1.12.36.46.53.9.53,1.39,0,.32-.15.65-.29.8-.13.13-.27.38-.4.71-.48,1.22-1.07,3.68-1.07,5.64,0,.57.04,1.24.13,1.64.04.21.11.29.17.29.09,0,.15-.06.19-.17.46-1.33.93-2.67,1.45-4.06.06-.19.15-.25.27-.25ZM318.37,10.56c-.08.4-.17.8-.17,1.37,0,.95.36,1.68,1.01,2.12.95.61,2.15.71,3.22.71.82,0,1.66-.06,2.46-.25.23-.06.55-.11.84-.11.69,0,1.26.21,1.26.69,0,.29-.13.48-.55.61-.65.19-2.06.27-2.99.27-1.54,0-3.6-.19-4.71-1.09-.74-.57-1.18-1.43-1.18-2.61,0-.55.15-1.26.4-1.83.06-.13.13-.17.23-.17.17,0,.19.13.17.27ZM321.48,5.34c-1.09.15-2.14.55-3.09.97-.09.04-.19.08-.25.08-.15,0-.23-.08-.23-.21,0-.15.08-.25.25-.36,1.6-1.01,3.7-1.54,5.91-1.54,1.35,0,1.68.34,1.68.8,0,.4-.21.57-.65.57-.36,0-.88-.06-1.47-.06-.4,0-.84.08-1.3.34-.74.38-1.05.71-1.94,1.54-.11.1-.19.17-.27.17-.11,0-.23-.06-.23-.17,0-.08.04-.19.13-.29.5-.63,1.01-1.18,1.54-1.68.11-.1.08-.17-.06-.15Z"/>
  </g>
</svg>